<?xml version="1.0" encoding="utf-8"?>
<!-- Generator: Adobe Illustrator 26.0.1, SVG Export Plug-In . SVG Version: 6.00 Build 0)  -->
<svg version="1.1" id="_x31_dff4cb4-53bd-4ffc-acc1-5e8a2ceb72de"
	 xmlns="http://www.w3.org/2000/svg" xmlns:xlink="http://www.w3.org/1999/xlink" x="0px" y="0px" viewBox="0 0 864.8 658.5"
	 style="enable-background:new 0 0 864.8 658.5;" xml:space="preserve">
<style type="text/css">
	.st0{opacity:0.7;}
	.st1{fill:url(#SVGID_1_);}
	.st2{fill:#E0E0E0;}
	.st3{opacity:0.1;enable-background:new    ;}
	.st4{fill:#55198B;}
	.st5{fill:#FDB797;}
	.st6{fill:#333333;}
	.st7{fill:url(#SVGID_00000132795186442441729690000012801439023373268872_);}
	.st8{fill:#FFFFFF;}
</style>
<g class="st0">
	
		<linearGradient id="SVGID_1_" gradientUnits="userSpaceOnUse" x1="477.0436" y1="-121.3271" x2="477.0436" y2="537.1398" gradientTransform="matrix(1 0 0 -1 -167.6 537.1099)">
		<stop  offset="0" style="stop-color:#808080;stop-opacity:0.25"/>
		<stop  offset="0.54" style="stop-color:#808080;stop-opacity:0.12"/>
		<stop  offset="1" style="stop-color:#808080;stop-opacity:0.1"/>
	</linearGradient>
	<path class="st1" d="M338.8,353.2l-0.6-0.1v-22.6c46.6-11.5,81.9-49.7,89.8-97.1h0.3c5.8,0,10.4-8.8,10.4-19.6
		c0-6.7-1.8-12.6-4.5-16.1c0.4-4.1,0.6-8.3,0.6-12.6c0-34.2-13.9-66.9-38.6-90.5c-1.7-8.4-4.7-16.4-8.9-23.8
		c-8.9-15.7-23.7-32-17.7-49l-39.1,4L330.2,0c-12.2,2.2-17.3,16.3-24.5,26.4c-17.4,24.2-52.4,27.6-75.5,46.4
		c-7.9,6.4-25.5,25.9-22.2,38.7c-15.5,21.4-23.9,47.1-23.8,73.5c0,4.2,0.2,8.4,0.6,12.6c-2.7,3.5-4.5,9.4-4.5,16.1
		c0,10.8,4.7,19.6,10.4,19.6h0.3c7.8,47.4,43.2,85.6,89.8,97.1V353l-0.6,0.1c-13.5-1.6-149.3-11.9-119.5,211.5l18.3,67.4l4.1-0.2
		c1.2,15.8,15.1,27.6,30.9,26.4c12.2-1,22.4-9.5,25.5-21.3c25.9-0.1,55.1-0.2,70-0.2s44.2,0.1,70,0.2c4,15.4,19.7,24.6,35,20.6
		c11.9-3.1,20.5-13.4,21.4-25.7l4.1,0.2l18.3-67.4C488.1,341.2,352.3,351.6,338.8,353.2z"/>
</g>
<rect y="625.2" class="st2" width="645.6" height="21.9"/>
<rect x="27.4" y="647" class="st2" width="590.9" height="9"/>
<rect x="27.4" y="647" class="st3" width="590.9" height="3"/>
<path class="st3" d="M193.4,626.8c0,0,86.6-0.3,116.1-0.3s116.1,0.3,116.1,0.3v-12.6H193.4V626.8z"/>
<path class="st4" d="M425.6,624.3c0,0-86.6-0.3-116.1-0.3s-116.1,0.3-116.1,0.3V465c0-64.1,52-116.1,116.1-116.1l0,0
	c64.1,0,116.1,52,116.1,116.1c0,0,0,0,0,0V624.3z"/>
<path class="st5" d="M298.5,290.8h22c9.3,0,16.8,7.5,16.8,16.8c0,0,0,0,0,0v46.3c0,15.3-12.4,27.8-27.8,27.8c0,0,0,0,0,0l0,0
	c-15.3,0-27.8-12.4-27.8-27.8c0,0,0,0,0,0v-46.3C281.7,298.3,289.2,290.8,298.5,290.8C298.5,290.8,298.5,290.8,298.5,290.8z"/>
<path class="st3" d="M281.7,332.9c18.2,4.5,37.3,4.5,55.5,0v-39.5h-55.5V332.9z"/>
<circle class="st6" cx="309.5" cy="189.9" r="121.1"/>
<circle class="st5" cx="309.5" cy="217.6" r="116.1"/>
<path class="st6" d="M232.8,81.4c22.3-18.2,56.1-21.5,72.9-44.9c7-9.7,11.9-23.4,23.7-25.5l0.4,24.9l37.8-3.9
	c-5.8,16.4,8.5,32.2,17.1,47.4c6.3,11.2,9.8,23.8,10.1,36.7c-13.1,7.9-29.4-0.7-44-5.3c-14.2-4.5-29.3-4.9-44.2-5.3
	c-7.6-0.2-15.4-0.4-22.8,1.2c-6.5,1.5-12.6,4.3-18.8,6.9c-10,4.2-41.8,20.1-51.1,9.9C203.3,111.8,224.2,88.4,232.8,81.4z"/>
<path class="st3" d="M239.1,159.4c6.2,3.7,13.4,5.2,20.5,6.2c29.7,4.1,60,0.7,88.1-9.9c4.6,11.7,15.8,19.7,27.8,23.5
	s24.7,4,37.2,4.1c2.8,0,5.7,0,8-1.5c5.6-3.8,2.9-12.4-0.4-18.3l-16.2-29.3c-4.8-8.7-9.7-17.5-17.1-24.1
	c-9.3-8.2-21.6-12.1-33.8-14.5c-28.7-5.7-58.4-4.7-86.6,2.9C236.5,106.7,197.7,134.3,239.1,159.4z"/>
<path class="st6" d="M239.1,156.9c6.2,3.7,13.4,5.2,20.5,6.2c29.7,4.1,60,0.7,88.1-9.9c4.6,11.7,15.8,19.7,27.8,23.5
	s24.7,4,37.2,4.1c2.8,0,5.7,0,8-1.5c5.6-3.8,2.9-12.4-0.4-18.3l-16.2-29.3c-4.8-8.7-9.7-17.5-17.1-24.1
	c-9.3-8.2-21.6-12.1-33.8-14.5c-28.7-5.7-58.4-4.7-86.6,2.9C236.5,104.2,197.7,131.8,239.1,156.9z"/>
<ellipse class="st5" cx="424.3" cy="217.6" rx="10.1" ry="18.9"/>
<ellipse class="st5" cx="194.7" cy="217.6" rx="10.1" ry="18.9"/>
<path class="st4" d="M336.8,352.5c0,0,146.8-22.9,116.6,204.3l-17.7,65.1l-50.5-2c0,0,32.8-75.7,12.6-126.2S336.8,352.5,336.8,352.5
	z"/>
<path class="st4" d="M282.2,352.5c0,0-146.8-22.9-116.6,204.3l17.7,65.1l50.5-2c0,0-32.8-75.7-12.6-126.2S282.2,352.5,282.2,352.5z"
	/>
<path class="st3" d="M218.6,452.6c0,0-10.1,78,7.6,100.7"/>
<path class="st3" d="M400.4,454.6c0,0,10.1,76-7.6,98.7"/>
<circle class="st5" cx="404.1" cy="619.7" r="27.8"/>
<circle class="st5" cx="214.9" cy="619.7" r="27.8"/>
<g class="st0">
	
		<linearGradient id="SVGID_00000012453791450332198480000006588754030467443878_" gradientUnits="userSpaceOnUse" x1="309.425" y1="34.8898" x2="309.425" y2="196.8898" gradientTransform="matrix(1 0 0 -1 0 657.8898)">
		<stop  offset="0" style="stop-color:#808080;stop-opacity:0.25"/>
		<stop  offset="0.54" style="stop-color:#808080;stop-opacity:0.12"/>
		<stop  offset="1" style="stop-color:#808080;stop-opacity:0.1"/>
	</linearGradient>
	<path style="fill:url(#SVGID_00000012453791450332198480000006588754030467443878_);" d="M239.4,461h140.1
		c11.8,0,21.3,9.6,21.3,21.3v119.3c0,11.8-9.6,21.3-21.3,21.3H239.4c-11.8,0-21.3-9.6-21.3-21.3V482.3
		C218,470.6,227.6,461,239.4,461z"/>
</g>
<path class="st2" d="M242.8,464h133.3c11.8,0,21.3,9.6,21.3,21.3v113.3c0,11.8-9.6,21.3-21.3,21.3H242.8c-11.8,0-21.3-9.6-21.3-21.3
	V485.3C221.4,473.6,231,464,242.8,464z"/>
<path class="st8" d="M320.3,567v-42.3c0,0,2.8-10.1-33.9,4.1c-0.1,0.2-0.1-39.1-0.1-39.1l12-0.1v25.2c0,0,33.5-13.2,33.5,10V567
	L320.3,567L320.3,567z M327.1,504.9h-12.7c4.6-5.6,8.7-15.2,8.7-15.2h13.1C336.2,489.7,334,496,327.1,504.9L327.1,504.9z M286.5,567
	v-24.1l12,12L286.5,567z"/>
<image style="overflow:visible;" width="2048" height="2048" xlink:href="C:\Users\tanvi\Downloads\Association_for_Computing_Machinery_(ACM)_logo.svg.png"  transform="matrix(7.189965e-02 0 0 7.189965e-02 235.8748 465.4629)">
</image>
</svg>
