<svg id="Layer_1" data-name="Layer 1" xmlns="http://www.w3.org/2000/svg" viewBox="0 0 327.15 228.17"><defs><style>.cls-1{fill:#00f9fa;}.cls-1,.cls-2,.cls-3,.cls-4{stroke:#000e8c;stroke-miterlimit:10;}.cls-2{fill:#05f7f8;}.cls-3,.cls-4{fill:#02fafc;}.cls-4{stroke-width:0.88px;}</style></defs><polygon class="cls-1" points="246.47 69.09 168.47 70.32 152.76 43.85 267.65 43.85 246.47 69.09"/><polygon class="cls-2" points="228.04 188.73 100.68 188.73 119.74 162.97 213.08 161.85 228.04 188.73"/><polygon class="cls-3" points="114.79 43.85 139.5 43.85 155.38 70.32 143.74 88.67 157.15 103.85 236.91 103.85 276.09 149.38 254.91 188.73 241.85 188.73 226.68 161.85 240.09 151.5 230.56 140.2 140.21 140.2 91.15 95.38 114.79 43.85"/><polygon class="cls-4" points="35.24 0.44 326.71 0.44 326.71 227.73 40.13 227.73 64.48 217.9 305.54 217.9 304.13 15.74 2.01 15.74 35.24 0.44"/></svg>