<?xml version="1.0" encoding="UTF-8"?>
<!DOCTYPE svg PUBLIC "-//W3C//DTD SVG 1.1//EN" "http://www.w3.org/Graphics/SVG/1.1/DTD/svg11.dtd">
<!-- Creator: CorelDRAW X7 -->
<svg xmlns="http://www.w3.org/2000/svg" xml:space="preserve" width="10.3895in" height="2.57077in" version="1.1" style="shape-rendering:geometricPrecision; text-rendering:geometricPrecision; image-rendering:optimizeQuality; fill-rule:evenodd; clip-rule:evenodd"
viewBox="0 0 10389 2571"
 xmlns:xlink="http://www.w3.org/1999/xlink">
 <defs>
  <style type="text/css">
   <![CDATA[
    .fil1 {fill:#363435}
    .fil4 {fill:#828080}
    .fil6 {fill:#A7A6A6}
    .fil0 {fill:#C43032}
    .fil5 {fill:#DA7D7E}
    .fil2 {fill:#F0CBCC}
    .fil3 {fill:white}
   ]]>
  </style>
 </defs>
 <g id="Layer_x0020_1">
  <metadata id="CorelCorpID_0Corel-Layer"/>
  <g id="_2116836687408">
   <g>
    <path class="fil0" d="M7264 2558l526 0 -1 -246 -285 0 1 -79 233 0c-2,-73 -15,-47 -233,-47l0 -68c20,-13 -24,-5 31,-11l105 0c49,0 99,-1 148,2l0 -244 -527 0 2 693z"/>
    <path class="fil0" d="M8515 2480l1 -263c-331,0 -262,81 -262,-364 -333,4 -463,284 -374,508 41,104 128,176 261,200 178,32 261,-21 374,-81z"/>
    <path class="fil1" d="M9174 2555l249 3 0 -210c101,-4 204,-28 252,-83 64,-72 119,-358 -171,-396 -75,-10 -257,-11 -330,-2l0 688z"/>
    <polygon class="fil1" points="9782,2107 9967,2110 9970,2555 10219,2558 10221,2110 10389,2110 10389,1864 9782,1864 "/>
    <path class="fil0" d="M8760 2558c17,-47 55,-109 77,-155 22,-44 43,-110 81,-142 38,-129 151,-269 193,-397l-659 0c217,487 213,267 213,694l95 0z"/>
    <path class="fil1" d="M8760 2558l154 -2 4 -295c-38,32 -59,98 -81,142 -22,46 -60,108 -77,155z"/>
    <path class="fil2" d="M7264 2558l-2 -693 527 0 0 244c-49,-3 -99,-2 -148,-2l-105 0c-55,6 -11,-2 -31,11l220 0c36,0 40,3 64,-9 2,-4 9,12 10,-54 0,-20 -1,-42 -1,-63 0,-56 7,-97 -9,-127 -3,-2 12,-9 -53,-10l-410 0c-36,0 -40,-3 -64,10 -14,26 -9,30 -9,74l0 451c0,28 0,56 0,84 0,37 -6,58 11,84z"/>
   </g>
   <g>
    <path class="fil1" d="M9404 1016l3 53 270 -2 2 -582c3,3 8,2 9,8 2,5 7,6 9,8 2,2 6,5 8,8l168 264c63,95 126,215 188,295l290 1c13,-133 5,-863 4,-1053l-277 3 -1 587 -378 -589 -295 -1 0 1000z"/>
    <path class="fil0" d="M4696 53c-26,0 -20,6 -16,-21l-283 -6 0 1037 264 0 0 -586c44,-5 9,-5 23,13l365 578 287 1 4 -1049 -275 0 -35 554 -64 -103c-75,-114 -205,-343 -270,-418z"/>
    <path class="fil1" d="M10389 1200l-10317 -17c-49,0 -100,25 -54,65 36,30 1082,12 1151,12l8961 0c214,0 262,28 259,-60z"/>
    <path class="fil0" d="M1110 1016l4 53 855 -1c7,-121 26,-239 -36,-239l-489 0 2 -187 446 -1 0 -222 -446 -1 1 -162 525 -1 0 -235 -862 -4 0 1000z"/>
    <path class="fil0" d="M5944 259c343,-128 389,498 150,569 -349,102 -378,-484 -150,-569zm-14 -251c-299,48 -454,278 -411,632 81,666 1097,585 1003,-185 -36,-296 -259,-499 -592,-447z"/>
    <polygon class="fil0" points="3250,1069 3525,1068 3528,648 3889,649 3890,1069 4164,1068 4167,22 3893,19 3888,413 3532,416 3527,22 3254,19 "/>
    <path class="fil1" d="M8764 367l102 323 -211 -2 109 -321zm-515 699l280 3c34,-83 27,-142 73,-153l319 0c40,10 45,79 73,153l274 0c-19,-121 -139,-400 -184,-535 -31,-92 -62,-176 -95,-266 -111,-309 -30,-252 -369,-251l-371 1049z"/>
    <path class="fil0" d="M3031 822l-208 -110c-52,52 -27,62 -108,100 -357,170 -440,-446 -201,-549 57,-24 127,-20 186,2 52,19 69,40 95,71l28 34 204 -100c-109,-376 -933,-422 -931,274 1,665 769,671 935,278z"/>
    <path class="fil0" d="M326 258c16,15 20,-14 20,77l-1 728 307 0 -2 -770c16,-72 -5,-12 25,-39l293 0 0 -229 -932 -5 -3 232 293 6z"/>
    <path class="fil0" d="M6935 647c65,-44 129,-105 184,-155 104,-95 493,-394 555,-475 -202,-4 -201,-20 -319,86 -51,46 -165,152 -228,180 -19,-50 -118,-244 -165,-267l-431 0 342 548c18,29 31,60 62,83z"/>
    <path class="fil1" d="M6535 1068l164 1c99,0 268,-216 381,-268l145 268 446 0c-19,-61 -330,-528 -392,-633 -61,31 -131,104 -188,154 -70,61 -123,101 -188,159 -64,59 -126,101 -191,157 -35,29 -56,50 -89,77 -28,23 -72,64 -88,85z"/>
    <polygon class="fil1" points="7805,1063 8069,1063 8069,25 7805,25 "/>
    <path class="fil1" d="M6976 1714c50,-34 14,-148 29,-282 72,103 66,250 138,282 66,-28 116,-241 148,-306 13,96 -1,204 3,249 9,89 -11,38 30,57 44,-30 24,-44 24,-184 0,-77 18,-173 -24,-187 -81,-27 -101,107 -140,200l-48 74c-17,-51 -37,-103 -59,-160 -36,-97 -20,-118 -130,-112 -3,66 -5,134 -6,199 0,28 -2,73 0,99 7,84 -8,52 35,71z"/>
    <path class="fil1" d="M170 1631l-62 -234c-24,-74 5,-43 -50,-52 -4,8 -27,-6 4,97l56 195c8,31 14,75 51,77 72,5 56,-146 108,-263 16,37 29,90 42,137 30,103 19,130 72,126 50,-3 56,-89 80,-174 16,-56 65,-159 32,-200 -54,18 -49,65 -64,126 -14,56 -28,106 -39,156l-40 -76c-33,-111 -22,-196 -97,-207 -56,63 -46,215 -93,292z"/>
    <path class="fil1" d="M8657 1714c49,-42 21,-204 22,-273 72,69 125,248 166,264 77,30 62,-25 62,-189 0,-29 3,-70 2,-98 -3,-75 10,-52 -30,-75 -32,18 -30,18 -28,117 1,53 1,104 -1,156 -42,-50 -86,-160 -122,-226 -27,-48 -16,-47 -85,-44 -32,50 -16,331 -14,336 14,39 -12,15 28,32z"/>
    <path class="fil1" d="M3801 1659c-89,-137 -8,-352 133,-255 58,39 113,309 -133,255zm20 -315c-190,55 -152,452 108,364 168,-56 153,-440 -108,-364z"/>
    <path class="fil1" d="M3375 1544c96,0 164,-5 123,106 -46,23 -59,19 -123,19l0 -125zm0 -159c77,1 118,6 110,87 -41,33 -35,27 -108,27l-2 -114zm-55 323c274,45 303,-146 187,-194 48,-49 45,-62 24,-140 -74,-39 -106,-35 -208,-29l-3 363z"/>
    <path class="fil1" d="M757 1407c149,-113 218,170 117,245 -64,48 -145,5 -163,-54 -26,-90 -7,-151 46,-191zm9 -62c-189,53 -169,428 96,366 183,-42 158,-438 -96,-366z"/>
    <path class="fil1" d="M2912 1650c-18,-52 -44,-137 -11,-207 30,-66 125,-80 173,-25 69,81 48,310 -162,232zm36 -305c-196,56 -156,452 106,363 163,-55 152,-438 -106,-363z"/>
    <path class="fil3" d="M8400 1586c65,-217 -168,-267 -206,-116 -52,210 159,276 206,116z"/>
    <path class="fil1" d="M8400 1586c-47,160 -258,94 -206,-116 38,-151 271,-101 206,116zm-155 -239c-105,32 -127,119 -110,235 15,102 106,163 226,126 163,-51 145,-440 -116,-361z"/>
    <path class="fil3" d="M2912 1650c210,78 231,-151 162,-232 -48,-55 -143,-41 -173,25 -33,70 -7,155 11,207z"/>
    <path class="fil3" d="M757 1407c-53,40 -72,101 -46,191 18,59 99,102 163,54 101,-75 32,-358 -117,-245z"/>
    <path class="fil3" d="M3801 1659c246,54 191,-216 133,-255 -141,-97 -222,118 -133,255z"/>
    <path class="fil1" d="M1930 1388c119,1 177,12 175,142 -2,117 -63,136 -174,136l-1 -278zm-51 317c160,44 281,-28 283,-175 3,-170 -123,-209 -283,-180l0 355z"/>
    <path class="fil1" d="M9657 1496l-163 -2 0 -154c-76,11 -52,-43 -52,190 0,224 -23,177 52,184l0 -166 163 -4c-1,145 -24,145 28,170 34,-17 14,5 26,-33l4 -278c-4,-71 13,-56 -46,-64 -23,42 -13,98 -12,157z"/>
    <path class="fil1" d="M1194 1382l110 17 -6 95 -104 12 0 -124zm-25 332c36,-23 20,15 26,-57 2,-24 -1,-78 -1,-106 185,8 50,175 194,157 -15,-66 -51,-134 -79,-178 88,-51 118,-220 -167,-182l-2 295c3,79 -10,52 29,71z"/>
    <path class="fil1" d="M6642 1417l54 154 -111 1 57 -155zm-138 297c58,-18 15,14 48,-53 26,-50 -24,-44 133,-44 39,0 29,16 44,49 31,65 -13,45 74,48 -17,-76 -43,-132 -69,-205 -18,-49 -36,-167 -91,-168 -56,-1 -95,178 -129,269 -45,121 -22,86 -10,104z"/>
    <path class="fil1" d="M6336 1354l-47 -10 -4 146c-32,28 -139,27 -159,0l-5 -146 -48 10 -5 289c4,83 -9,52 33,71 44,-29 24,-33 24,-170l160 0c0,137 -19,141 24,170 46,-23 29,-5 28,-170 0,-63 2,-126 -1,-190z"/>
    <path class="fil3" d="M1931 1666c111,0 172,-19 174,-136 2,-130 -56,-141 -175,-142l1 278z"/>
    <path class="fil1" d="M2506 1390c43,-5 77,2 106,15 20,101 -9,108 -106,97l0 -112zm-43 321l32 -8 7 -154c19,-1 15,-4 29,-1 43,11 9,1 28,11 97,35 19,139 125,154 11,-20 10,-3 6,-38l-52 -115c-14,-27 1,10 -18,-37 85,-47 82,-144 -20,-172l-138 0 1 360z"/>
    <path class="fil1" d="M10182 1382l107 17c27,103 3,128 -105,128l-2 -145zm-24 332c50,-33 11,0 28,-138 103,-4 183,-26 168,-142 -13,-102 -122,-95 -225,-89 -4,67 -3,133 -3,199 0,161 -18,147 32,170z"/>
    <path class="fil1" d="M7584 1385c114,6 133,13 108,131l-106 11 -2 -142zm-24 329c50,-34 12,-2 28,-138 102,-5 183,-27 168,-142 -13,-99 -126,-101 -225,-84 -4,65 -2,129 -3,194 0,186 -16,149 32,170z"/>
    <path class="fil1" d="M5162 1647c-6,108 209,96 225,-23 22,-159 -163,-73 -160,-223 22,-12 28,-19 64,-15 18,2 47,20 77,5 -10,-44 0,-44 -61,-52 -165,-20 -165,128 -96,178 35,26 127,47 119,107 -12,86 -120,25 -168,23z"/>
    <path class="fil1" d="M9222 1650c-66,34 -93,10 -160,-7 3,125 210,83 225,-16 24,-164 -173,-83 -156,-222 72,-53 87,14 137,-14 -11,-52 -49,-66 -120,-51 -49,11 -83,51 -78,106 12,132 193,60 152,204z"/>
    <path class="fil1" d="M5038 1655c-3,-1 -8,-6 -9,-2l-39 1c-242,57 -163,-230 -110,-259 89,-20 88,-2 155,23 -4,-97 -108,-88 -160,-72 -149,46 -165,395 73,371 92,-10 86,-49 90,-62z"/>
    <path class="fil1" d="M5920 1638c-76,18 -148,72 -195,-24 -38,-79 -12,-181 40,-213 75,-38 91,-3 153,16 2,-52 0,-60 -48,-73 -244,-67 -278,289 -134,358 29,14 175,54 184,-64z"/>
    <polygon class="fil3" points="8655,688 8866,690 8764,367 "/>
    <path class="fil4" d="M7805 25l264 0 0 1038 -264 0 0 -1038zm-12 1046l289 2 3 -1051 -288 -9 -4 1058z"/>
    <path class="fil1" d="M4141 1364c25,43 -22,12 109,28 0,56 0,111 0,166 0,26 -3,61 -2,85 3,81 -7,53 33,71 31,-20 25,10 25,-59l0 -267c90,0 91,24 100,-45l-234 3c-36,11 -8,-3 -31,18z"/>
    <path class="fil5" d="M4684 490c-14,-18 21,-18 -23,-13l0 586 -264 0 0 -1037 283 6c-4,27 -10,21 16,21l-16 -21c-12,-26 3,-16 -50,-20l-246 10 -3 1044 288 9c14,-129 -23,-512 15,-585z"/>
    <path class="fil1" d="M1555 1343c-4,7 -13,-8 -15,76l6 290 137 5c68,0 42,-1 55,-31 -38,-28 -80,-17 -137,-17 -23,-190 39,-330 -46,-323z"/>
    <path class="fil5" d="M675 254c-30,27 -9,-33 -25,39l2 770 -307 0 1 -728c0,-91 -4,-62 -20,-77l8 813 330 2c18,-223 -30,-640 11,-819z"/>
    <path class="fil1" d="M9921 1714c44,-28 25,-69 25,-197 0,-37 2,-77 1,-113 -1,-67 10,-56 -40,-63 -29,44 -17,204 -18,287 0,7 1,52 2,55 13,37 -3,16 30,31z"/>
    <path class="fil1" d="M7935 1714c48,-14 36,-2 36,-71l-1 -225c1,-65 11,-65 -35,-78 -23,28 -27,269 -18,330 8,48 1,20 18,44z"/>
    <polygon class="fil1" points="4561,1711 4601,1713 4608,1343 4554,1346 "/>
    <path class="fil3" d="M3375 1669c64,0 77,4 123,-19 41,-111 -27,-106 -123,-106l0 125z"/>
    <path class="fil3" d="M7586 1527l106 -11c25,-118 6,-125 -108,-131l2 142z"/>
    <path class="fil3" d="M10184 1527c108,0 132,-25 105,-128l-107 -17 2 145z"/>
    <path class="fil3" d="M2506 1502c97,11 126,4 106,-97 -29,-13 -63,-20 -106,-15l0 112z"/>
    <polygon class="fil3" points="1194,1506 1298,1494 1304,1399 1194,1382 "/>
    <path class="fil6" d="M2463 1711c26,10 14,11 32,-8 31,-10 16,-107 16,-143l48 -1c-19,-10 15,0 -28,-11 -14,-3 -10,0 -29,1l-7 154 -32 8 -1 -360 138 0c-29,-20 -20,-18 -69,-19 -1,0 -41,3 -41,3 -31,8 -11,0 -28,16 -25,19 -25,263 -17,319 10,70 -3,20 18,41z"/>
    <path class="fil3" d="M3377 1499c73,0 67,6 108,-27 8,-81 -33,-86 -110,-87l2 114z"/>
    <polygon class="fil3" points="6585,1572 6696,1571 6642,1417 "/>
    <path class="fil6" d="M4561 1711l-7 -365 54 -3 -7 370c10,-16 9,-4 14,-31l-7 -339c-3,-3 -9,-10 -11,-6 -1,4 -8,-4 -10,-4 -32,4 -18,-5 -33,13l-11 87c0,79 -13,243 18,278z"/>
    <path class="fil4" d="M6121 1344l5 146c20,27 127,28 159,0l4 -146 47 10c-4,-41 -47,-10 -47,-10 -1,3 -3,4 -4,10 -3,50 -16,37 0,136l-159 0 -5 -146c-28,-17 -28,-19 -48,10l48 -10z"/>
   </g>
  </g>
 </g>
</svg>
